<svg id="object" xmlns="http://www.w3.org/2000/svg" viewBox="0 0 1100.79 2100.01"><g style="opacity:0.2"><path d="M159.49,51.32l149,175,176.08-59a10.84,10.84,0,0,1-.06-5.1l-323-113.88A10.8,10.8,0,0,1,159.49,51.32Z" transform="translate(548.08 332.96)" style="fill:none"/><path d="M340.24,278.41,187,273.07a10.73,10.73,0,0,1-.49,2.11,10.85,10.85,0,0,1-5.35,6.19l26.33,56.23,133.26-56.52A10.86,10.86,0,0,1,340.24,278.41Z" transform="translate(548.08 332.96)" style="fill:none"/><path d="M38.56,399.37a10.77,10.77,0,0,1,7.09,2.46L167.51,278.22a11.12,11.12,0,0,1-1.31-2.3L29.61,319.39Z" transform="translate(548.08 332.96)" style="fill:none"/><path d="M45,419.13a10.85,10.85,0,0,1-6.4,2L28,519.25,11.7,671.1l.46.13A10.91,10.91,0,0,1,17.39,675L170.44,566.81Z" transform="translate(548.08 332.96)" style="fill:none"/><path d="M168.39,264.14a10.89,10.89,0,0,1,5.66-3.11L151.87,54.6a10.77,10.77,0,0,1-3.65-.56q-.54-.2-1.05-.42L70.81,186Z" transform="translate(548.08 332.96)" style="fill:none"/><path d="M485.28,169.16,309.94,227.92l34.9,41A10.83,10.83,0,0,1,359,270.31l48.93-38.39,78.16-61.33A10.48,10.48,0,0,1,485.28,169.16Z" transform="translate(548.08 332.96)" style="fill:none"/><path d="M153.87,54.39l22.18,206.43a10.82,10.82,0,0,1,10.09,6.48L306.48,227,158,52.62A10.86,10.86,0,0,1,153.87,54.39Z" transform="translate(548.08 332.96)" style="fill:none"/><path d="M165.91,268.19a10.8,10.8,0,0,1,1.22-2.48l-97.33-78L30.05,256.65a10.89,10.89,0,0,1,4.59,8.79l131,3.57A7.66,7.66,0,0,1,165.91,268.19Z" transform="translate(548.08 332.96)" style="fill:none"/><path d="M252,675.31,19.61,682.52h-.13A10.58,10.58,0,0,1,19,685a10.88,10.88,0,0,1-3.68,5.14l46.25,83.89,191.12-96.13A11.21,11.21,0,0,1,252,675.31Z" transform="translate(548.08 332.96)" style="fill:none"/><path d="M-10.16,117.66a10.7,10.7,0,0,1-1.23,2.49l80.62,64.57L145.44,52.61a10.8,10.8,0,0,1-3.36-3.85L-10.06,111A10.84,10.84,0,0,1-10.16,117.66Z" transform="translate(548.08 332.96)" style="fill:none"/><path d="M179.28,282.11a10.78,10.78,0,0,1-6.57-.13,10.65,10.65,0,0,1-3.41-1.91L47.1,403.26a10.65,10.65,0,0,1,1.23,1.83l157.3-66.71Z" transform="translate(548.08 332.96)" style="fill:none"/><path d="M186.78,269.2a10.76,10.76,0,0,1,.28,1.79l96.54,3.41,56.71,2a11.28,11.28,0,0,1,.48-2.11,10.77,10.77,0,0,1,2.52-4.09l-35.42-41.59Z" transform="translate(548.08 332.96)" style="fill:none"/><path d="M-23.47,819.06a10.87,10.87,0,0,1-.54,4.31,10.86,10.86,0,0,1-1.18,2.39L96.44,854.35v0a10.8,10.8,0,0,1,4.07-5.41L60.71,776.73Z" transform="translate(548.08 332.96)" style="fill:none"/><path d="M255.82-29a10.92,10.92,0,0,1-4.47-2.89L162.21,36.91l112.9-61.19-8.27-7.14A10.86,10.86,0,0,1,255.82-29Z" transform="translate(548.08 332.96)" style="fill:none"/><path d="M37.85-39.13,151-39.71l.37-96.78A10.61,10.61,0,0,1,149-137a10.89,10.89,0,0,1-4-2.44L35.83-44.73A10.81,10.81,0,0,1,37.85-39.13Z" transform="translate(548.08 332.96)" style="fill:none"/><path d="M161.7,39.47a10.81,10.81,0,0,1,.55,6.92L484.7,160.09l.68-.25a11,11,0,0,1,.92-1.56L276.74-22.87Z" transform="translate(548.08 332.96)" style="fill:none"/><path d="M267.92,489.1,48.7,414.67a10.94,10.94,0,0,1-2.16,3.16L172.08,565.65l97-68.59A10.85,10.85,0,0,1,267.92,489.1Z" transform="translate(548.08 332.96)" style="fill:none"/><path d="M-120.56-101.37l96.41,205.31a10.8,10.8,0,0,1,7.19-.07,10.86,10.86,0,0,1,6.14,5.27L141.32,46.9a10.77,10.77,0,0,1,.1-6.66c.1-.3.22-.6.35-.89l-259-144.1A11,11,0,0,1-120.56-101.37Z" transform="translate(548.08 332.96)" style="fill:none"/><path d="M127.62,29.18,35.2-31.25a10.91,10.91,0,0,1-9.67,3.63Z" transform="translate(548.08 332.96)" style="fill:none"/><path d="M-23.82,817l83.56-42L13.57,691.23a10.83,10.83,0,0,1-6.34,1.08L-30.32,809.77A10.86,10.86,0,0,1-23.82,817Z" transform="translate(548.08 332.96)" style="fill:none"/><path d="M165.59,274a11.13,11.13,0,0,1-.23-3l-130.9-3.56a10,10,0,0,1-.39,1.57,10.85,10.85,0,0,1-9.27,7.32l4.58,41Z" transform="translate(548.08 332.96)" style="fill:none"/><path d="M27.27,255.23c.36.12.7.26,1,.41l39.9-69.16-80.85-64.77a10.8,10.8,0,0,1-3.82,2.56L21.7,254.85A10.74,10.74,0,0,1,27.27,255.23Z" transform="translate(548.08 332.96)" style="fill:none"/><path d="M103.25,868.12a11,11,0,0,1-2.39-1.16L53.46,930l108,129.52a11.11,11.11,0,0,1,2.18-1.16l-55-189.86A10.83,10.83,0,0,1,103.25,868.12Z" transform="translate(548.08 332.96)" style="fill:none"/><path d="M253.54,679.73l-191,96.09,39.76,72.11a10.8,10.8,0,0,1,8-.4,10.64,10.64,0,0,1,2.57,1.28L255,681.56A11.67,11.67,0,0,1,253.54,679.73Z" transform="translate(548.08 332.96)" style="fill:none"/><path d="M18.43,676.76a10.82,10.82,0,0,1,1.05,3.75l232.44-7.21a10.9,10.9,0,0,1,.55-2.83,10.78,10.78,0,0,1,2.53-4.1l-83.26-98Z" transform="translate(548.08 332.96)" style="fill:none"/><path d="M96,856.3,77.47,852l-104-24.45A10.72,10.72,0,0,1-30,829.85l82.18,98.61,47.14-62.74A10.88,10.88,0,0,1,96,856.3Z" transform="translate(548.08 332.96)" style="fill:none"/><path d="M-270.83-280.32a12.37,12.37,0,0,1-1.42-.37c-.24-.08-.48-.18-.71-.28L-383.28-74.2l75.19,122a10.81,10.81,0,0,1,4.65-1.21Z" transform="translate(548.08 332.96)" style="fill:none"/><path d="M-313.39,54a10.84,10.84,0,0,1,3.61-5.07l-74.6-121L-446.77,44.79a10.89,10.89,0,0,1,5,8.94L-313.87,56A10.86,10.86,0,0,1-313.39,54Z" transform="translate(548.08 332.96)" style="fill:none"/><path d="M-274.73-281.92a10.89,10.89,0,0,1-4.9-9.32l-246.93-28.6a11.77,11.77,0,0,1-.34,1.26,10.82,10.82,0,0,1-3.76,5.19L-384.5-76.18Z" transform="translate(548.08 332.96)" style="fill:none"/><path d="M341.53,282.93l-133.2,56.49,66.48,142a10.9,10.9,0,0,1,6.21-.35l65.64-193.34A10.8,10.8,0,0,1,341.53,282.93Z" transform="translate(548.08 332.96)" style="fill:none"/><path d="M-89.95,1726.35a10.49,10.49,0,0,1,1.85,2.2l185.64-95.34a10.84,10.84,0,0,1,5.43-13.88L66.38,1519Z" transform="translate(548.08 332.96)" style="fill:none"/><path d="M13.47,262a11.44,11.44,0,0,1,.64-1.47l-102-64.94L-233.54,368.13a11,11,0,0,1,1.85,2.54L13.4,268.75A10.73,10.73,0,0,1,13.47,262Z" transform="translate(548.08 332.96)" style="fill:none"/><path d="M171.05,1058.22h0a10.87,10.87,0,0,1,7.19,12.25l172.94,48.46a10.84,10.84,0,0,1,1.92-3.22L196.29,952.48Z" transform="translate(548.08 332.96)" style="fill:none"/><path d="M-99.39,1723.73a10.82,10.82,0,0,1,5.62.36c.34.12.66.25,1,.39l137.39-242.2a10.86,10.86,0,0,1-4-5.33L-158,1526.43Z" transform="translate(548.08 332.96)" style="fill:none"/><path d="M-333.4,1579.35a10.86,10.86,0,0,1-3.12,0l-14.16,110.87L-362.26,1781a11.44,11.44,0,0,1,2.09.48,10.87,10.87,0,0,1,7,7.54l98.68-21.44Z" transform="translate(548.08 332.96)" style="fill:none"/><path d="M-27.82,106.16A11.15,11.15,0,0,1-26,104.8l-96.38-205.26a10.78,10.78,0,0,1-7.54.21,10.86,10.86,0,0,1-3.71-2.15l-61,57.8Z" transform="translate(548.08 332.96)" style="fill:none"/><path d="M-45.57,1042.05l-110.38-94.28-71.24,74.06a10.94,10.94,0,0,1,2.64,7.15l177.2,17.29a10.88,10.88,0,0,1,.37-1.44A11,11,0,0,1-45.57,1042.05Z" transform="translate(548.08 332.96)" style="fill:none"/><path d="M-5.36,685.43l-160.85,32.89a11,11,0,0,1-.51,4.69,11.36,11.36,0,0,1-.86,1.91l16.9,11.88Z" transform="translate(548.08 332.96)" style="fill:none"/><path d="M155.21,33.44a10.82,10.82,0,0,1,4.47,2.89l90.45-69.78a10.78,10.78,0,0,1-1.63-4.75L153-37.71l-.27,70.63A10.61,10.61,0,0,1,155.21,33.44Z" transform="translate(548.08 332.96)" style="fill:none"/><path d="M49.12,406.94a10.75,10.75,0,0,1,.22,5.83L268.56,487.2a10.85,10.85,0,0,1,4.43-4.95l-66.51-142Z" transform="translate(548.08 332.96)" style="fill:none"/><path d="M249-42.76a10.7,10.7,0,0,1,2-3.49l-91.65-92.66a10.85,10.85,0,0,1-5.93,2.43L153-39.72l95.45-.49A10.9,10.9,0,0,1,249-42.76Z" transform="translate(548.08 332.96)" style="fill:none"/><path d="M-29.37,1040.27a10.89,10.89,0,0,1,3.56,8.12l144.7,14.3,38,3.76a10.32,10.32,0,0,1,.36-1.43,11,11,0,0,1,2.6-4.17L52.22,931.69Z" transform="translate(548.08 332.96)" style="fill:none"/><path d="M150.75,32.91,151-37.7,37.8-37.12a11.09,11.09,0,0,1-.5,2.22,10.58,10.58,0,0,1-.92,2L143.21,37A10.84,10.84,0,0,1,150.75,32.91Z" transform="translate(548.08 332.96)" style="fill:none"/><path d="M-32.1,830.51a10.59,10.59,0,0,1-2.93.2l-.62,206.8a10.56,10.56,0,0,1,2.46.51,11,11,0,0,1,2.21,1l81.88-109Z" transform="translate(548.08 332.96)" style="fill:none"/><path d="M-159.5,1172.52a10.79,10.79,0,0,1-.44,5.2,10.73,10.73,0,0,1-1.2,2.45L17.38,1303.8a10.89,10.89,0,0,1,4.84-3.3l-40.95-172.29Z" transform="translate(548.08 332.96)" style="fill:none"/><path d="M-172.75,1442.58a10.87,10.87,0,0,1,1.37,5.4l211.54,23.2a12.8,12.8,0,0,1,.34-1.32,10.88,10.88,0,0,1,3-4.6l-82.23-110.9Z" transform="translate(548.08 332.96)" style="fill:none"/><path d="M15.4,1307.29a11.35,11.35,0,0,1,.83-1.84l-178.62-123.71a12.05,12.05,0,0,1-1.06,1L-38.2,1351.64l54.31-35.74A10.88,10.88,0,0,1,15.4,1307.29Z" transform="translate(548.08 332.96)" style="fill:none"/><path d="M47.31,1483.66c-.34-.12-.66-.25-1-.39l-135.11,238.2L65.56,1516.76l-12-32.89A10.81,10.81,0,0,1,47.31,1483.66Z" transform="translate(548.08 332.96)" style="fill:none"/><path d="M29.41,404.69a10.87,10.87,0,0,1,7.16-5.09L27.66,320-70.68,351.3a10.84,10.84,0,0,1,.05,5.9Z" transform="translate(548.08 332.96)" style="fill:none"/><path d="M156.69,1068.45-26,1050.39a10.69,10.69,0,0,1-.36,1.43,10.89,10.89,0,0,1-6.82,6.8l15.93,67,174.21-54.84A10.93,10.93,0,0,1,156.69,1068.45Z" transform="translate(548.08 332.96)" style="fill:none"/><path d="M-231.92,1018.63a10.79,10.79,0,0,1,3.28,1.81l71.16-74L-319.54,808a11,11,0,0,1-2.62,1.88l83.65,208.59A10.84,10.84,0,0,1-231.92,1018.63Z" transform="translate(548.08 332.96)" style="fill:none"/><path d="M-248.25-97.57a11,11,0,0,1-1.59,3l53.76,48.6L-135-103.86a10.93,10.93,0,0,1-2.19-5.18l-110.51,8.17A10.87,10.87,0,0,1-248.25-97.57Z" transform="translate(548.08 332.96)" style="fill:none"/><path d="M-237.8,365.45a10.87,10.87,0,0,1,2.72,1.38L-89.62,194.54-294.5,64.12A10.84,10.84,0,0,1-300.36,68l58,297A11,11,0,0,1-237.8,365.45Z" transform="translate(548.08 332.96)" style="fill:none"/><path d="M-449.12,43.65l.56.22,63-118-146.77-238.2a10,10,0,0,1-1.49.59l79.26,355A10.84,10.84,0,0,1-449.12,43.65Z" transform="translate(548.08 332.96)" style="fill:none"/><path d="M-91.41,350.85a10.86,10.86,0,0,1,13.79-6.8,10.85,10.85,0,0,1,3.79,2.21L14.7,271.51a9,9,0,0,1-.53-.91L-230.92,372.52c.08.27.16.53.22.8L-92,354.78A10.92,10.92,0,0,1-91.41,350.85Z" transform="translate(548.08 332.96)" style="fill:none"/><path d="M-166.62,716.36-2.14,682.72a10.83,10.83,0,0,1,7.68-11.6L-78.7,364.94a10.85,10.85,0,0,1-4.94,0l-89.68,344.37A10.83,10.83,0,0,1-166.62,716.36Z" transform="translate(548.08 332.96)" style="fill:none"/><path d="M275,501.93a10.8,10.8,0,0,1-4.75-3.24l-96.85,68.49,83.14,97.89a10.88,10.88,0,0,1,6.17-2l13.86-160.78A12.85,12.85,0,0,1,275,501.93Z" transform="translate(548.08 332.96)" style="fill:none"/><path d="M-292.27,58.44l261.41,52.61c0-.13.06-.25.1-.38a11,11,0,0,1,1.6-3L-196-43.22-294.84,50.4A10.89,10.89,0,0,1-292.27,58.44Z" transform="translate(548.08 332.96)" style="fill:none"/><path d="M16.65-41.7-97.81-96.25,18.64-31.45A10.86,10.86,0,0,1,16.65-41.7Z" transform="translate(548.08 332.96)" style="fill:none"/><path d="M348.05,289.86,282.92,481.7c.24.11.48.23.71.36L387.14,325.81Z" transform="translate(548.08 332.96)" style="fill:none"/><path d="M488.34,173.07a10.92,10.92,0,0,1-1-.91L360.23,271.89a10.87,10.87,0,0,1-10.64,16.66l38.67,35.57Z" transform="translate(548.08 332.96)" style="fill:none"/><path d="M445.06-106.82a10.87,10.87,0,0,1-5.54-4.27L278.63-23.89l209,180.65a11,11,0,0,1,4.77-2.68L449.33-106.27A10.89,10.89,0,0,1,445.06-106.82Z" transform="translate(548.08 332.96)" style="fill:none"/><path d="M269.61-35.77a11,11,0,0,1-1.45,2.83L277-25.3,431.48-109,269.7-42.45A10.75,10.75,0,0,1,269.61-35.77Z" transform="translate(548.08 332.96)" style="fill:none"/><path d="M-153,737.62l-15.74-11.06a10.88,10.88,0,0,1-11.77,3.25,10.88,10.88,0,0,1-5.56-4.29L-315.16,795Z" transform="translate(548.08 332.96)" style="fill:none"/><path d="M285.3,483.16a10.91,10.91,0,0,1,2.79,3.38l188.49-78.47-87.94-80.88Z" transform="translate(548.08 332.96)" style="fill:none"/><path d="M196.84,950.16l157.72,164.16a11,11,0,0,1,3.35-1.81L259.26,688.64Z" transform="translate(548.08 332.96)" style="fill:none"/><path d="M491.65,174.9a12.14,12.14,0,0,1-1.64-.72L389.76,325.5l87.8,80.74,15.85-230.91A11,11,0,0,1,491.65,174.9Z" transform="translate(548.08 332.96)" style="fill:none"/><path d="M646,102.59,501.72,155.94a10.86,10.86,0,0,1-6.31,19.52L479.72,404.1,649.59,106.8A11,11,0,0,1,646,102.59Z" transform="translate(548.08 332.96)" style="fill:none"/><path d="M350.65,1120.87,177.71,1072.4a10.87,10.87,0,0,1-13.64,6.41c-.39-.13-.75-.28-1.11-.44L32,1302a10.71,10.71,0,0,1,2.61,2.68l316.76-177.4A10.76,10.76,0,0,1,350.65,1120.87Z" transform="translate(548.08 332.96)" style="fill:none"/><path d="M-78.43,1774.24l32.56,73.19a10.8,10.8,0,0,1,7,0,10,10,0,0,1,1.6.7l138.15-210.48a11,11,0,0,1-1.18-1.08Z" transform="translate(548.08 332.96)" style="fill:none"/><path d="M-160.56,1525l-19.75-66.44a10.8,10.8,0,0,1-5.44-.4,10.89,10.89,0,0,1-4.5-2.92L-325.9,1562.84a11.14,11.14,0,0,1,1.3,3Z" transform="translate(548.08 332.96)" style="fill:none"/><path d="M-213.55,1865.08l-40.13-95.67L-352.82,1791a10.89,10.89,0,0,1-.55,4.27,11.87,11.87,0,0,1-.76,1.7l137.29,71.52A10.92,10.92,0,0,1-213.55,1865.08Z" transform="translate(548.08 332.96)" style="fill:none"/><path d="M-166.74,1163.92a10.86,10.86,0,0,1,3.93,2.37L-45.23,1055a10.88,10.88,0,0,1-2.32-6.76L-224.75,1031a11,11,0,0,1-.37,1.45,10.86,10.86,0,0,1-5,6l56.33,125.55A10.85,10.85,0,0,1-166.74,1163.92Z" transform="translate(548.08 332.96)" style="fill:none"/><path d="M50.14,1462.5a10.88,10.88,0,0,1,11.32,8.71L93,1467.85a10.84,10.84,0,0,1,5.14-9.4L29.63,1320.93a11.34,11.34,0,0,1-1.29.4Z" transform="translate(548.08 332.96)" style="fill:none"/><path d="M-52.69,1854.23a10.83,10.83,0,0,1,5-6l-32.36-72.74-119,92a10.7,10.7,0,0,1,2,4.14l143.79-13.86A10.86,10.86,0,0,1-52.69,1854.23Z" transform="translate(548.08 332.96)" style="fill:none"/><path d="M-324.82,1572.11a10.88,10.88,0,0,1-1.74,3.2l221,152.12a10.83,10.83,0,0,1,4.3-3.13L-160,1526.92l-164.28,40.93A10.84,10.84,0,0,1-324.82,1572.11Z" transform="translate(548.08 332.96)" style="fill:none"/><path d="M-316.26,800-45,818.14a11.4,11.4,0,0,1,.43-1.77,11.36,11.36,0,0,1,.86-1.91L-151,739l-165.59,58.54A11.27,11.27,0,0,1-316.26,800Z" transform="translate(548.08 332.96)" style="fill:none"/><path d="M-42.54,827a11,11,0,0,1-2.64-6.82L-316.39,802a11.13,11.13,0,0,1-.43,1.77,10.81,10.81,0,0,1-1.42,2.77L-156.09,945Z" transform="translate(548.08 332.96)" style="fill:none"/><path d="M-32.25,809.2,5.27,691.86l-.1,0a10.82,10.82,0,0,1-6.37-5.74l-147.47,52.13,106.08,74.6A10.88,10.88,0,0,1-32.25,809.2Z" transform="translate(548.08 332.96)" style="fill:none"/><path d="M-37.65,1037.49l.62-207.1-.78-.22a10.79,10.79,0,0,1-3.28-1.81l-113.47,118,110.3,94.21A11,11,0,0,1-37.65,1037.49Z" transform="translate(548.08 332.96)" style="fill:none"/><path d="M9.72,670.72,36.61,420.89a11,11,0,0,1-1.34-.35,10.88,10.88,0,0,1-6.8-13.8l.09-.23-99.89-47.42a10.87,10.87,0,0,1-5.46,5.22L7.52,670.73A10.11,10.11,0,0,1,9.72,670.72Z" transform="translate(548.08 332.96)" style="fill:none"/><path d="M-160,1170.58l140.81-44.33-16-67.17a10.7,10.7,0,0,1-5-.46,10.92,10.92,0,0,1-3.68-2.12l-117.62,111.29A10.53,10.53,0,0,1-160,1170.58Z" transform="translate(548.08 332.96)" style="fill:none"/><path d="M-28.2,121.79A10.88,10.88,0,0,1-31.27,113L-292.64,60.41c-.05.19-.09.37-.15.56a12.68,12.68,0,0,1-.63,1.45L-88.31,193Z" transform="translate(548.08 332.96)" style="fill:none"/><path d="M-71.42,349.43,27.43,318l-4.65-41.63a10.58,10.58,0,0,1-2.51-.52A10.7,10.7,0,0,1,16,273.08l-88.43,74.66A11.34,11.34,0,0,1-71.42,349.43Z" transform="translate(548.08 332.96)" style="fill:none"/><path d="M-260.53-90.39-299.59,47.17a10.82,10.82,0,0,1,3.3,1.83l98.75-93.57-53.65-48.49A10.88,10.88,0,0,1-260.53-90.39Z" transform="translate(548.08 332.96)" style="fill:none"/><path d="M-260.13-111.82l-8.92-166L-301.37,46.07l38.9-137a10.86,10.86,0,0,1-6.37-13.63A10.86,10.86,0,0,1-260.13-111.82Z" transform="translate(548.08 332.96)" style="fill:none"/><path d="M-178.75,1437.56a10.78,10.78,0,0,1,4.87,3.36l134-88.18-125.26-168.93a10.81,10.81,0,0,1-4.78,1.27l-11.07,252A10.79,10.79,0,0,1-178.75,1437.56Z" transform="translate(548.08 332.96)" style="fill:none"/><path d="M19.77,255.42-18.39,124.84a10.81,10.81,0,0,1-5.56-.37,10.87,10.87,0,0,1-2.72-1.38l-59.93,71,101.78,64.8A10.88,10.88,0,0,1,19.77,255.42Z" transform="translate(548.08 332.96)" style="fill:none"/><path d="M-108,1735.71a10.81,10.81,0,0,1,.49-4.82,10.18,10.18,0,0,1,.81-1.81L-328,1576.79a11.14,11.14,0,0,1-3.48,2l79,188.25Z" transform="translate(548.08 332.96)" style="fill:none"/><path d="M22.2,1321.09a10.91,10.91,0,0,1-5-3.51L-37,1353.25l82.16,110.81a11.14,11.14,0,0,1,3-1.25l-21.8-141.17A10.72,10.72,0,0,1,22.2,1321.09Z" transform="translate(548.08 332.96)" style="fill:none"/><path d="M100.32,1478a10.8,10.8,0,0,1-2.22-1.06L67.82,1517.1l37,101.54a10.72,10.72,0,0,1,1.5-.28l-3.29-139.82A11.54,11.54,0,0,1,100.32,1478Z" transform="translate(548.08 332.96)" style="fill:none"/><path d="M61.1,1476.85a10.78,10.78,0,0,1-5.65,6.33L67,1514.85l29.5-39.11a10.94,10.94,0,0,1-3.34-5.9l-31.49,3.37A10.77,10.77,0,0,1,61.1,1476.85Z" transform="translate(548.08 332.96)" style="fill:none"/><path d="M110.55,868l55,189.83a10.73,10.73,0,0,1,3.58-.08l25.54-107-81.12-84.44A10.81,10.81,0,0,1,110.55,868Z" transform="translate(548.08 332.96)" style="fill:none"/><path d="M157.54,1072.72l-174.35,54.89,41,172.42a10.87,10.87,0,0,1,5,.46,10.73,10.73,0,0,1,1.11.45l130.91-223.59A10.87,10.87,0,0,1,157.54,1072.72Z" transform="translate(548.08 332.96)" style="fill:none"/><path d="M-87.18,1730.34a10.81,10.81,0,0,1,.21,7.55,10.86,10.86,0,0,1-5,6l12.68,28.49L98.38,1635Z" transform="translate(548.08 332.96)" style="fill:none"/><path d="M-204.11,1863.88a10.65,10.65,0,0,1,1.42.61l97.88-122.28a10.83,10.83,0,0,1-2.81-4.54L-251.69,1769l39.92,95.16A10.83,10.83,0,0,1-204.11,1863.88Z" transform="translate(548.08 332.96)" style="fill:none"/><path d="M256.52,682.86,114.37,850.08a10.84,10.84,0,0,1,.6,14.86l80.22,83.49,63.14-264.54A10.34,10.34,0,0,1,256.52,682.86Z" transform="translate(548.08 332.96)" style="fill:none"/><path d="M-93.78,1744.68a10.83,10.83,0,0,1-7,0,11,11,0,0,1-2.48-1.23L-201,1865.57c.18.14.37.28.54.44l119.52-92.39Z" transform="translate(548.08 332.96)" style="fill:none"/><path d="M40.06,1475a11.07,11.07,0,0,1-.13-1.82L-171.59,1450a13.15,13.15,0,0,1-.36,1.37,10.9,10.9,0,0,1-6.43,6.67l19.77,66.49Z" transform="translate(548.08 332.96)" style="fill:none"/><path d="M659.33,87.6a10.88,10.88,0,0,0-14,13.11L499.47,154.63c-.27-.12-.54-.23-.83-.33a10.85,10.85,0,0,0-4.27-.55L451.31-106.61a10.85,10.85,0,0,0,7.54-7,10.87,10.87,0,0,0-6.8-13.79,10.87,10.87,0,0,0-13.79,6.8,10.79,10.79,0,0,0-.09,6.69L268.94-44.31a10.84,10.84,0,0,0-6.13-5.25,10.87,10.87,0,0,0-10.39,1.9l-91.65-92.66a10.89,10.89,0,0,0,2-3.49,10.87,10.87,0,0,0-6.81-13.79,10.87,10.87,0,0,0-13.79,6.8,10.86,10.86,0,0,0,1.47,9.83L34.51-46.25a10.79,10.79,0,0,0-4-2.45,10.87,10.87,0,0,0-13.06,5.15l-133.5-63.62a10.87,10.87,0,0,0-6.84-13.67,10.87,10.87,0,0,0-13.79,6.8,10.51,10.51,0,0,0-.56,3l-110.57,8.18a10.86,10.86,0,0,0-7.23-8.5,11.05,11.05,0,0,0-3.07-.56l-9.05-168.31a10.86,10.86,0,0,0,8.72-7.25,10.88,10.88,0,0,0-6.81-13.8A10.88,10.88,0,0,0-279-294.48a11,11,0,0,0-.34,1.25l-246.93-28.6a10.9,10.9,0,0,0-7.38-10.55,10.88,10.88,0,0,0-13.8,6.81,10.88,10.88,0,0,0,6.8,13.79,10.79,10.79,0,0,0,4.88.48l79.29,355.11a10.83,10.83,0,0,0-6.38,6.64,10.87,10.87,0,0,0,6.8,13.8,10.88,10.88,0,0,0,13.79-6.8,11.84,11.84,0,0,0,.42-1.71l128,2.28a10.89,10.89,0,0,0,7.36,9.75,10.77,10.77,0,0,0,4.25.55l58,297a10.86,10.86,0,0,0-7.24,6.93,10.88,10.88,0,0,0,6.8,13.8,10.88,10.88,0,0,0,13.8-6.8,11,11,0,0,0,.56-3.94L-91.7,356.77a10.83,10.83,0,0,0,7.09,7.87l-1-.25-89.68,344.4A10.86,10.86,0,0,0-187.31,716a10.78,10.78,0,0,0,.29,7.74l-131,70.49a10.75,10.75,0,0,0-5.55-4.29,10.88,10.88,0,0,0-13.8,6.8,10.87,10.87,0,0,0,6.8,13.79,10.77,10.77,0,0,0,6.59.12l83.65,208.6a10.87,10.87,0,0,0-5.34,6.17,10.88,10.88,0,0,0,6.81,13.8,10.82,10.82,0,0,0,7,0l56.33,125.55a10.85,10.85,0,0,0-5,6,10.88,10.88,0,0,0,6.81,13.79,11.64,11.64,0,0,0,1.81.44L-183,1437a10.89,10.89,0,0,0-9.55,7.36,10.84,10.84,0,0,0,1.09,9.27l-135.66,107.61a10.78,10.78,0,0,0-4.5-2.93,10.89,10.89,0,0,0-13.8,6.8,10.88,10.88,0,0,0,6.81,13.8l.12,0-25.79,201.94a10.87,10.87,0,0,0-9.69,7.35,10.89,10.89,0,0,0,6.8,13.8,10.87,10.87,0,0,0,11.92-3.43l137.51,71.65c0,.15-.12.28-.17.43a10.88,10.88,0,0,0,6.81,13.8,10.88,10.88,0,0,0,13.79-6.81,10.76,10.76,0,0,0,.56-4.06l143.68-13.85a10.85,10.85,0,0,0,7.18,8.26,10.88,10.88,0,0,0,13.8-6.8,10.87,10.87,0,0,0-3.53-12l138.15-210.48a10.35,10.35,0,0,0,1.59.7,10.87,10.87,0,1,0,7-20.59,11.09,11.09,0,0,0-2.75-.55l-3.29-139.82a10.87,10.87,0,1,0-5.19-20.93L31.43,1320a10.86,10.86,0,0,0,4.2-13.66L352.39,1129a10.87,10.87,0,1,0,7.47-16.93L260.37,684.58a10.88,10.88,0,0,0,5.89-20.91,9.89,9.89,0,0,0-1.56-.39L278.56,502.5a10.88,10.88,0,0,0,10.23-7.38,10.73,10.73,0,0,0,.07-6.72L477.3,410l-.19,2.75,2-3.51,1.13-.47-.57-.52L651.33,107.8c.33.14.66.28,1,.39a10.87,10.87,0,0,0,7-20.59ZM351.19,1118.93l-172.94-48.46a10.87,10.87,0,0,0-7.19-12.25h0l25.24-105.74,156.82,163.23A10.84,10.84,0,0,0,351.19,1118.93Zm-711.36,662.5a11.44,11.44,0,0,0-2.09-.48l11.58-90.69,14.16-110.87a10.86,10.86,0,0,0,3.12,0l78.93,188.18L-353.15,1789A10.87,10.87,0,0,0-360.17,1781.43ZM-224.55,1029a10.94,10.94,0,0,0-2.64-7.15l71.24-74.06,110.38,94.28a11,11,0,0,0-1.41,2.78,10.88,10.88,0,0,0-.37,1.44Zm57.83-306a11,11,0,0,0,.51-4.69L-5.36,685.43-150.68,736.8l-16.9-11.88A11.36,11.36,0,0,0-166.72,723Zm-66.82-354.88L-87.91,195.62l102,64.94a11.44,11.44,0,0,0-.64,1.47,10.73,10.73,0,0,0-.07,6.72L-231.69,370.67A11,11,0,0,0-233.54,368.13ZM-446.77,44.79l62.39-116.94,74.6,121.05A10.84,10.84,0,0,0-313.39,54a10.86,10.86,0,0,0-.48,2.05l-127.88-2.29A10.89,10.89,0,0,0-446.77,44.79Zm63.49-119L-273-281c.23.1.47.2.71.28a12.37,12.37,0,0,0,1.42.37L-303.44,46.61a10.81,10.81,0,0,0-4.65,1.21ZM-526.9-318.58a11.77,11.77,0,0,0,.34-1.26l246.93,28.6a10.89,10.89,0,0,0,4.9,9.32L-384.5-76.18-530.66-313.39A10.82,10.82,0,0,0-526.9-318.58ZM281,481.05a10.9,10.9,0,0,0-6.21.35l-66.48-142,133.2-56.49a10.8,10.8,0,0,0,5.13,4.78ZM97.32,1625.66a10.81,10.81,0,0,0,.22,7.55L-88.1,1728.55a10.49,10.49,0,0,0-1.85-2.2L66.38,1519,103,1619.33A10.84,10.84,0,0,0,97.32,1625.66ZM44.59,1482.28-92.8,1724.48c-.31-.14-.63-.27-1-.39a10.82,10.82,0,0,0-5.62-.36L-158,1526.43,40.55,1477A10.86,10.86,0,0,0,44.59,1482.28ZM-88.78,1721.47l135.11-238.2c.32.14.64.27,1,.39a10.81,10.81,0,0,0,6.26.21l12,32.89ZM40.5,1469.86a12.8,12.8,0,0,0-.34,1.32L-171.38,1448a10.87,10.87,0,0,0-1.37-5.4l134.07-88.22,82.23,110.9A10.88,10.88,0,0,0,40.5,1469.86Zm-203.95-287.15a12.05,12.05,0,0,0,1.06-1L16.23,1305.45a11.35,11.35,0,0,0-.83,1.84,10.88,10.88,0,0,0,.71,8.61l-54.31,35.74ZM17.38,1303.8l-178.52-123.63a10.73,10.73,0,0,0,1.2-2.45,10.79,10.79,0,0,0,.44-5.2l140.77-44.31,41,172.29A10.89,10.89,0,0,0,17.38,1303.8ZM-33.2,1058.62a10.89,10.89,0,0,0,6.82-6.8,10.69,10.69,0,0,0,.36-1.43l182.71,18.06a10.93,10.93,0,0,0,.25,2.36l-174.21,54.84ZM-70.68,351.3,27.66,320l8.91,79.59a10.87,10.87,0,0,0-7.16,5.09l-100-47.49A10.84,10.84,0,0,0-70.68,351.3ZM37.3-34.9a11.09,11.09,0,0,0,.5-2.22L151-37.7l-.27,70.61A10.84,10.84,0,0,0,143.21,37L36.38-32.88A10.58,10.58,0,0,0,37.3-34.9ZM153.41-136.48a10.85,10.85,0,0,0,5.93-2.43L251-46.25a10.7,10.7,0,0,0-2,3.49,10.9,10.9,0,0,0-.52,2.55L153-39.72ZM248.5-38.2a10.78,10.78,0,0,0,1.63,4.75L159.68,36.33a10.82,10.82,0,0,0-4.47-2.89,10.61,10.61,0,0,0-2.45-.52L153-37.71Zm20.06,525.4L49.34,412.77a10.75,10.75,0,0,0-.22-5.83L206.48,340.2,273,482.25A10.85,10.85,0,0,0,268.56,487.2ZM-33.19,1038a10.56,10.56,0,0,0-2.46-.51l.62-206.8a10.59,10.59,0,0,0,2.93-.2l83,99.6-81.88,109A11,11,0,0,0-33.19,1038Zm190.45,27a10.32,10.32,0,0,0-.36,1.43l-38-3.76-144.7-14.3a10.89,10.89,0,0,0-3.56-8.12L52.22,931.69l107.64,129.16A11,11,0,0,0,157.26,1065ZM52.14,928.46-30,829.85a10.72,10.72,0,0,0,3.46-2.35L77.47,852,96,856.3a10.88,10.88,0,0,0,3.3,9.42Zm44.31-74.13v0L-25.19,825.76A10.86,10.86,0,0,0-24,823.37a10.87,10.87,0,0,0,.54-4.31l84.18-42.33,39.81,72.19A10.8,10.8,0,0,0,96.45,854.33ZM15.28,690.17A10.88,10.88,0,0,0,19,685a10.58,10.58,0,0,0,.52-2.51h.13L252,675.31a11.21,11.21,0,0,0,.67,2.62L61.53,774.06ZM34.64,265.44a10.89,10.89,0,0,0-4.59-8.79L69.8,187.74l97.33,78a10.8,10.8,0,0,0-1.22,2.48,7.66,7.66,0,0,0-.23.82ZM47.1,403.26,169.3,280.07a10.65,10.65,0,0,0,3.41,1.91,10.78,10.78,0,0,0,6.57.13l26.35,56.27L48.33,405.09A10.65,10.65,0,0,0,47.1,403.26Zm293.69-129a11.28,11.28,0,0,0-.48,2.11l-56.71-2L187.06,271a10.76,10.76,0,0,0-.28-1.79l121.11-40.59,35.42,41.59A10.77,10.77,0,0,0,340.79,274.29Zm-154.65-7a10.82,10.82,0,0,0-10.09-6.48L153.87,54.39a10.86,10.86,0,0,0,4.1-1.77L306.48,227ZM148.22,54a10.77,10.77,0,0,0,3.65.56L174.05,261a10.89,10.89,0,0,0-5.66,3.11L70.81,186,147.17,53.62Q147.68,53.85,148.22,54Zm19.29,224.18L45.65,401.83a10.77,10.77,0,0,0-7.09-2.46l-9-80L166.2,275.92A11.12,11.12,0,0,0,167.51,278.22Zm-155.35,393-.46-.13L28,519.25l10.57-98.14a10.85,10.85,0,0,0,6.4-2L170.44,566.81,17.39,675A10.91,10.91,0,0,0,12.16,671.23Zm169-389.86a10.85,10.85,0,0,0,5.35-6.19,10.73,10.73,0,0,0,.49-2.11l153.25,5.34a10.86,10.86,0,0,0,.5,2.67L207.48,337.6ZM359,270.31a10.83,10.83,0,0,0-14.15-1.41l-34.9-41,175.34-58.76a10.48,10.48,0,0,0,.8,1.43l-78.16,61.33ZM484.55,162.17a10.84,10.84,0,0,0,.06,5.1l-176.08,59-149-175a10.8,10.8,0,0,0,2.1-3ZM145.44,52.61,69.23,184.72l-80.62-64.57a10.7,10.7,0,0,0,1.23-2.49,10.84,10.84,0,0,0,.1-6.66L142.08,48.76A10.8,10.8,0,0,0,145.44,52.61Zm-158.08,69.1,80.85,64.77-39.9,69.16c-.34-.15-.68-.29-1-.41a10.74,10.74,0,0,0-5.57-.38L-16.46,124.27A10.8,10.8,0,0,0-12.64,121.71ZM34.07,269a10,10,0,0,0,.39-1.57L165.36,271a11.13,11.13,0,0,0,.23,3L29.38,317.35l-4.58-41A10.85,10.85,0,0,0,34.07,269ZM13.57,691.23,59.74,775l-83.56,42a10.86,10.86,0,0,0-6.5-7.23L7.23,692.31A10.83,10.83,0,0,0,13.57,691.23Zm147.84,368.33L53.46,930,100.86,867a11,11,0,0,0,2.39,1.16,10.83,10.83,0,0,0,5.36.42l55,189.86A11.11,11.11,0,0,0,161.41,1059.56Zm-51.17-212a10.8,10.8,0,0,0-8,.4L62.5,775.82l191-96.09a11.67,11.67,0,0,0,1.45,1.83L112.81,848.81A10.64,10.64,0,0,0,110.24,847.53ZM252.47,670.47a10.9,10.9,0,0,0-.55,2.83L19.48,680.51a10.82,10.82,0,0,0-1.05-3.75L171.74,568.35l83.26,98A10.78,10.78,0,0,0,252.47,670.47ZM46.54,417.83a10.94,10.94,0,0,0,2.16-3.16L267.92,489.1a10.85,10.85,0,0,0,1.16,8l-97,68.59Zm438.84-258-.68.25L162.25,46.39a10.81,10.81,0,0,0-.55-6.92l115-62.34L486.3,158.28A11,11,0,0,0,485.38,159.84ZM162.21,36.91l89.14-68.76A10.92,10.92,0,0,0,255.82-29a10.86,10.86,0,0,0,11-2.46l8.27,7.14ZM149-137a10.61,10.61,0,0,0,2.45.52L151-39.71l-113.18.58a10.81,10.81,0,0,0-2-5.6l109.1-94.72A10.89,10.89,0,0,0,149-137ZM35.2-31.25l92.42,60.43L25.53-27.62A10.91,10.91,0,0,0,35.2-31.25Zm106.57,70.6c-.13.29-.25.59-.35.89a10.77,10.77,0,0,0-.1,6.66L-10.82,109.14A10.86,10.86,0,0,0-17,103.87a10.8,10.8,0,0,0-7.19.07l-96.41-205.31a11,11,0,0,0,3.36-3.38ZM-133.6-102.4a10.86,10.86,0,0,0,3.71,2.15,10.78,10.78,0,0,0,7.54-.21L-26,104.8a11.15,11.15,0,0,0-1.85,1.36L-194.59-44.6ZM-29.16,107.65a11,11,0,0,0-1.6,3c0,.13-.07.25-.1.38L-292.27,58.44a10.89,10.89,0,0,0-2.57-8L-196-43.22ZM-296.29,49a10.82,10.82,0,0,0-3.3-1.83l39.06-137.56a10.88,10.88,0,0,0,9.34-2.67l53.65,48.49Zm33.82-139.94-38.9,137L-269-277.86l8.92,166a10.86,10.86,0,0,0-8.71,7.25A10.86,10.86,0,0,0-262.47-90.94ZM-292.79,61c.06-.19.1-.37.15-.56L-31.27,113a10.88,10.88,0,0,0,3.07,8.77L-88.31,193-293.42,62.42A12.68,12.68,0,0,0-292.79,61Zm266.12,62.12a10.87,10.87,0,0,0,2.72,1.38,10.81,10.81,0,0,0,5.56.37L19.77,255.42a10.88,10.88,0,0,0-4.59,3.45L-86.6,194.07ZM16,273.08a10.7,10.7,0,0,0,4.31,2.74,10.58,10.58,0,0,0,2.51.52L27.43,318l-98.85,31.46a11.34,11.34,0,0,0-1-1.69Zm-87.29,86,99.89,47.42-.09.23a10.88,10.88,0,0,0,6.8,13.8,11,11,0,0,0,1.34.35L9.72,670.72a10.11,10.11,0,0,0-2.2,0L-76.79,364.31A10.87,10.87,0,0,0-71.33,359.09Zm70.13,327a10.82,10.82,0,0,0,6.37,5.74l.1,0L-32.25,809.2a10.88,10.88,0,0,0-10.34,3.62l-106.08-74.6ZM-43.75,814.46a11.36,11.36,0,0,0-.86,1.91,11.4,11.4,0,0,0-.43,1.77L-316.26,800a11.27,11.27,0,0,0-.32-2.39L-151,739Zm-273.07-10.72a11.13,11.13,0,0,0,.43-1.77l271.21,18.18A11,11,0,0,0-42.54,827L-156.09,945l-162.15-138.5A10.81,10.81,0,0,0-316.82,803.74Zm275.73,24.62a10.79,10.79,0,0,0,3.28,1.81l.78.22-.62,207.1a11,11,0,0,0-6.61,3l-110.3-94.21Zm-2.77,228.14a10.92,10.92,0,0,0,3.68,2.12,10.7,10.7,0,0,0,5,.46l16,67.17L-160,1170.58a10.53,10.53,0,0,0-1.48-2.79Zm-121.28,127.31,125.26,168.93-134,88.18a10.78,10.78,0,0,0-4.87-3.36,10.79,10.79,0,0,0-2.24-.51l11.07-252A10.81,10.81,0,0,0-165.14,1183.81Zm-6.81,267.54a13.15,13.15,0,0,0,.36-1.37l211.52,23.2a11.07,11.07,0,0,0,.13,1.82l-198.67,49.51L-178.38,1458A10.9,10.9,0,0,0-171.95,1451.35Zm70.64,273a10.83,10.83,0,0,0-4.3,3.13l-220.95-152.12a10.88,10.88,0,0,0,1.74-3.2,10.84,10.84,0,0,0,.55-4.26L-160,1526.92Zm-230.13-145.46a11.14,11.14,0,0,0,3.48-2l221.21,152.29a10.18,10.18,0,0,0-.81,1.81,10.81,10.81,0,0,0-.49,4.82l-144.43,31.38Zm223.82,158.83a10.83,10.83,0,0,0,2.81,4.54l-97.88,122.28a10.65,10.65,0,0,0-1.42-.61,10.83,10.83,0,0,0-7.66.26L-251.69,1769ZM-200.43,1866c-.17-.16-.36-.3-.54-.44l97.73-122.11a11,11,0,0,0,2.48,1.23,10.83,10.83,0,0,0,7,0l12.87,28.94Zm108.48-122.14a10.86,10.86,0,0,0,5-6,10.81,10.81,0,0,0-.21-7.55L98.38,1635-79.27,1772.36Zm196.81-125.23-37-101.54,30.28-40.16a10.8,10.8,0,0,0,2.22,1.06,11.54,11.54,0,0,0,2.75.54l3.29,139.82A10.72,10.72,0,0,0,104.86,1618.64Zm-8.36-142.9L67,1514.85l-11.55-31.67a10.83,10.83,0,0,0,6.22-10l31.49-3.37A10.94,10.94,0,0,0,96.5,1475.74Zm-51.34-11.68L-37,1353.25l54.21-35.67a10.91,10.91,0,0,0,5,3.51,10.72,10.72,0,0,0,4.16.55l21.8,141.17A11.14,11.14,0,0,0,45.16,1464.06Zm-16-163.57a10.87,10.87,0,0,0-5-.46l-41-172.42,174.35-54.89a10.87,10.87,0,0,0,3.68,4.63L30.31,1300.94A10.73,10.73,0,0,0,29.2,1300.49Zm139.9-242.73a10.73,10.73,0,0,0-3.58.08L110.55,868a10.81,10.81,0,0,0,3-1.69l81.12,84.44ZM115,864.94a10.84,10.84,0,0,0-.6-14.86L256.52,682.86a10.34,10.34,0,0,0,1.81,1L195.19,948.43ZM256.53,665.07l-83.14-97.89,96.85-68.49a10.8,10.8,0,0,0,4.75,3.24,12.85,12.85,0,0,0,1.57.39L262.7,663.1A10.88,10.88,0,0,0,256.53,665.07ZM282.92,481.7l65.13-191.84,39.09,35.95L283.63,482.06C283.4,481.93,283.16,481.81,282.92,481.7Zm66.67-193.15a10.87,10.87,0,0,0,10.64-16.66l127.11-99.73a10.92,10.92,0,0,0,1,.91L388.26,324.12Zm142.8-134.47a11,11,0,0,0-4.77,2.68l-209-180.65,160.89-87.2a10.87,10.87,0,0,0,5.54,4.27,10.89,10.89,0,0,0,4.27.55ZM431.48-109,277-25.3l-8.84-7.64a11,11,0,0,0,1.45-2.83,10.75,10.75,0,0,0,.09-6.68ZM16.65-41.7a10.86,10.86,0,0,0,2,10.25L-97.81-96.25ZM-137.16-109a10.93,10.93,0,0,0,2.19,5.18l-61.11,57.91-53.76-48.6a11,11,0,0,0,1.59-3,10.87,10.87,0,0,0,.58-3.3Zm-396.7-202.7a10,10,0,0,0,1.49-.59L-385.6-74.13l-63,118-.56-.22a10.84,10.84,0,0,0-5.48-.39ZM-300.36,68a10.84,10.84,0,0,0,5.86-3.87L-89.62,194.54-235.08,366.83a10.87,10.87,0,0,0-2.72-1.38,11,11,0,0,0-4.58-.51Zm69.66,305.33c-.06-.27-.14-.53-.22-.8L14.17,270.6a9,9,0,0,0,.53.91l-88.53,74.75a10.85,10.85,0,0,0-3.79-2.21,10.86,10.86,0,0,0-13.79,6.8,10.92,10.92,0,0,0-.56,3.93Zm147.06-8.4a10.85,10.85,0,0,0,4.94,0L5.54,671.12a10.83,10.83,0,0,0-7.68,11.6l-164.48,33.64a10.83,10.83,0,0,0-6.7-7.07Zm-96.87,364.89a10.88,10.88,0,0,0,11.77-3.25L-153,737.62-315.16,795l129.09-69.43A10.88,10.88,0,0,0-180.51,729.81Zm-141.65,80.11a11,11,0,0,0,2.62-1.88l162.06,138.42-71.16,74a10.79,10.79,0,0,0-3.28-1.81,10.84,10.84,0,0,0-6.59-.12Zm92.08,228.47a10.86,10.86,0,0,0,5-6,11,11,0,0,0,.37-1.45l177.2,17.29a10.88,10.88,0,0,0,2.32,6.76l-117.58,111.26a10.86,10.86,0,0,0-3.93-2.37,10.85,10.85,0,0,0-7,0Zm39.83,416.84a10.89,10.89,0,0,0,4.5,2.92,10.8,10.8,0,0,0,5.44.4l19.75,66.44-164,40.88a11.14,11.14,0,0,0-1.3-3Zm-163.88,341.7a11.87,11.87,0,0,0,.76-1.7,10.89,10.89,0,0,0,.55-4.27l99.14-21.55,40.13,95.67a10.92,10.92,0,0,0-3.29,3.37ZM-197,1871.62a10.7,10.7,0,0,0-2-4.14l119-92,32.36,72.74a10.83,10.83,0,0,0-5,6,10.86,10.86,0,0,0-.57,3.53Zm159.75-23.49a10,10,0,0,0-1.6-.7,10.8,10.8,0,0,0-7,0l-32.56-73.19,178.1-137.67a11,11,0,0,0,1.18,1.08ZM98.09,1458.45a10.84,10.84,0,0,0-5.14,9.4l-31.49,3.36a10.88,10.88,0,0,0-11.32-8.71l-21.8-141.17a11.34,11.34,0,0,0,1.29-.4ZM34.65,1304.63A10.71,10.71,0,0,0,32,1302L163,1078.37c.36.16.72.31,1.11.44a10.87,10.87,0,0,0,13.64-6.41l172.94,48.47a10.76,10.76,0,0,0,.76,6.36Zm319.91-190.31L196.84,950.16l62.42-261.52,98.65,423.87A11,11,0,0,0,354.56,1114.32ZM288.09,486.54a10.91,10.91,0,0,0-2.79-3.38l103.34-156,87.94,80.88Zm189.47-80.3-87.8-80.74L490,174.18a12.14,12.14,0,0,0,1.64.72,11,11,0,0,0,1.76.43Zm2.16-2.14,15.69-228.64a10.86,10.86,0,0,0,6.31-19.52L646,102.59a11,11,0,0,0,3.56,4.21Z" transform="translate(548.08 332.96)"/></g><path d="M174,310.82a8.55,8.55,0,0,1,.91-1.34L85,218.85a8.23,8.23,0,0,1-2.51,1.41,8,8,0,0,1-4.83.09l-19.39,41.4Z" transform="translate(548.08 332.96)" style="fill:none"/><path d="M101.32,52.25c-.25.11-.51.21-.77.3a7.87,7.87,0,0,1-2.69.42L81.54,204.84a8,8,0,0,1,4.17,2.29l71.78-57.5Z" transform="translate(548.08 332.96)" style="fill:none"/><path d="M-43,211.58a8,8,0,0,1,1.85,3,8.79,8.79,0,0,1,.36,1.56L3.7,214.58,72,212.17a7.26,7.26,0,0,1,.21-1.32L-16.92,181Z" transform="translate(548.08 332.96)" style="fill:none"/><path d="M72.65,209.45a8,8,0,0,1,4.73-4.35,8.16,8.16,0,0,1,2.69-.42L96.39,52.81a7.86,7.86,0,0,1-3-1.3L-15.89,179.78Z" transform="translate(548.08 332.96)" style="fill:none"/><path d="M76.32,219.8a8,8,0,0,1-3.94-4.55,8.59,8.59,0,0,1-.36-1.56l-112.74,3.94a8.09,8.09,0,0,1-.37,2l98,41.58Z" transform="translate(548.08 332.96)" style="fill:none"/><path d="M-51.28,209.59a8,8,0,0,1,7.17,1l25.68-30.15-129-43.23a8.31,8.31,0,0,1-.59,1.05l64.5,50.62,29,22.75A7.91,7.91,0,0,1-51.28,209.59Z" transform="translate(548.08 332.96)" style="fill:none"/><path d="M164.93,584.24l-29.29,53.11a8,8,0,0,1,3,4v0l89.48-21a8,8,0,0,1-.86-1.76,7.85,7.85,0,0,1-.4-3.16Z" transform="translate(548.08 332.96)" style="fill:none"/><path d="M90.25,40,24.67-10.64a7.92,7.92,0,0,1-3.28,2.13,8,8,0,0,1-8.12-1.81L7.19-5.06Z" transform="translate(548.08 332.96)" style="fill:none"/><path d="M231.69,623.32a7.85,7.85,0,0,1-2.54-1.73L159.45,638,139,642.78a8,8,0,0,1-2.43,6.93l34.68,46.16Z" transform="translate(548.08 332.96)" style="fill:none"/><path d="M195.64,516.78a8,8,0,0,1-.38-1.85l-15-.46L24.21,509.62a8.49,8.49,0,0,1-.49,1.94l140.6,70.72,34-61.72A8.06,8.06,0,0,1,195.64,516.78Z" transform="translate(548.08 332.96)" style="fill:none"/><path d="M93.89,796.34a6.75,6.75,0,0,1,.27,1l28.45-2.81,106-10.48a8,8,0,0,1,2.62-6l-60-79.89L92,793.27A7.83,7.83,0,0,1,93.89,796.34Z" transform="translate(548.08 332.96)" style="fill:none"/><path d="M173.46,312.18,57.68,263.09,8.75,367.59A8,8,0,0,1,12,371.23l161.28-54.76A7.89,7.89,0,0,1,173.46,312.18Z" transform="translate(548.08 332.96)" style="fill:none"/><path d="M233.21,623.8l-61.07,73.28,60.25,80.16a7.51,7.51,0,0,1,1.62-.76,7.71,7.71,0,0,1,1.81-.39L235.36,624A7.72,7.72,0,0,1,233.21,623.8Z" transform="translate(548.08 332.96)" style="fill:none"/><path d="M90.84,792.32,170.26,697l-34.87-46.41a8.21,8.21,0,0,1-1.76.86,8,8,0,0,1-3.94.31L89.24,791.46A8.48,8.48,0,0,1,90.84,792.32Z" transform="translate(548.08 332.96)" style="fill:none"/><path d="M218.89,102.34,159.41,150l29.35,50.88c.25-.11.51-.21.77-.3a7.89,7.89,0,0,1,4.1-.27l28.07-96.07A8.06,8.06,0,0,1,218.89,102.34Z" transform="translate(548.08 332.96)" style="fill:none"/><path d="M199.61,521.34l-34,61.6,61.48,30.92a8,8,0,0,1,4.78-5.32l-27.63-86.41A8,8,0,0,1,199.61,521.34Z" transform="translate(548.08 332.96)" style="fill:none"/><path d="M184.53,210.72a8.2,8.2,0,0,1-.29-1.16l-96.3,2.62a8.58,8.58,0,0,1-.17,2.21L188,246.27l3.38-30.16A8,8,0,0,1,184.53,210.72Z" transform="translate(548.08 332.96)" style="fill:none"/><path d="M105.55,42.4a7.93,7.93,0,0,1,.07,4.91L217.55,93.09a8,8,0,0,1,9.81-3.82l70.93-151a8,8,0,0,1-2.47-2.48l-190.53,106A5.18,5.18,0,0,1,105.55,42.4Z" transform="translate(548.08 332.96)" style="fill:none"/><path d="M100-88a7.23,7.23,0,0,1-1.8.38l.27,71.2,83.26.43a8,8,0,0,1,1.49-4.12L103-89.8A7.85,7.85,0,0,1,100-88Z" transform="translate(548.08 332.96)" style="fill:none"/><path d="M87.32,215.8a8.53,8.53,0,0,1-1,1.68L176,308.42a7.83,7.83,0,0,1,5.21-1.8l6.59-58.85Z" transform="translate(548.08 332.96)" style="fill:none"/><path d="M196.8,509.43a8,8,0,0,1,3.85-2.8l.34-.1L188.8,393.3l-7.61-70.69a8,8,0,0,1-4.71-1.45L84.2,429.8Z" transform="translate(548.08 332.96)" style="fill:none"/><path d="M128.49,636.33a8,8,0,0,1,5.87.29l29.25-53L23.06,512.88A7.58,7.58,0,0,1,22,514.22l104.61,123A7.59,7.59,0,0,1,128.49,636.33Z" transform="translate(548.08 332.96)" style="fill:none"/><path d="M-146.94,135.86-17.4,179.27,92.25,50.56a8,8,0,0,1-1.54-2.24l-237.6,83.79A7.91,7.91,0,0,1-146.94,135.86Z" transform="translate(548.08 332.96)" style="fill:none"/><path d="M83,429,175.36,320.2a7.76,7.76,0,0,1-1.59-2.33L12.49,372.63a7.94,7.94,0,0,1-.86,5.85Z" transform="translate(548.08 332.96)" style="fill:none"/><path d="M23.85,506.06a7.65,7.65,0,0,1,.4,2.09l171,5.3a8,8,0,0,1,.77-2.76L83.24,430.93,22,503.05A8,8,0,0,1,23.85,506.06Z" transform="translate(548.08 332.96)" style="fill:none"/><path d="M86.63,208.28a7.6,7.6,0,0,1,.9,1.83c.07.2.12.4.17.6l96.41-2.63a8,8,0,0,1,3.37-6.47l-29.24-50.69Z" transform="translate(548.08 332.96)" style="fill:none"/><path d="M454.88,1174.73l-58.07,138.44,72.6,15.78a8,8,0,0,1,5.16-5.55,8.58,8.58,0,0,1,1.54-.36l-7.59-59.45-11.35-88.83A8,8,0,0,1,454.88,1174.73Z" transform="translate(548.08 332.96)" style="fill:none"/><path d="M83.74,791.33h0L65.18,713.54-50.19,833.63A7.93,7.93,0,0,1-48.78,836L78.45,800.34A8,8,0,0,1,83.74,791.33Z" transform="translate(548.08 332.96)" style="fill:none"/><path d="M230.06,90.9,352.75-20,307.88-62.54a8,8,0,0,1-2.73,1.59,7.92,7.92,0,0,1-5.54-.16l-70.92,151A7.88,7.88,0,0,1,230.06,90.9Z" transform="translate(548.08 332.96)" style="fill:none"/><path d="M190.81-7.53a8,8,0,0,1-7.11-2.66l-68,44.46Z" transform="translate(548.08 332.96)" style="fill:none"/><path d="M232.22,94.22c0,.09.05.18.08.28L424.62,55.79a8,8,0,0,1,1.89-5.91L353.83-19,231.05,92A8.11,8.11,0,0,1,232.22,94.22Z" transform="translate(548.08 332.96)" style="fill:none"/><path d="M427.57,48.85A8,8,0,0,1,430,47.5L401.27-53.7a8,8,0,0,1-6.88-2L354.93-20Z" transform="translate(548.08 332.96)" style="fill:none"/><path d="M401-69.47a8,8,0,0,1,6.41,5.34,8,8,0,0,1-4.69,10l28.62,100.8L407.54-191.63Z" transform="translate(548.08 332.96)" style="fill:none"/><path d="M243.11,779.44a7.87,7.87,0,0,1,1,2,8.24,8.24,0,0,1,.27,1.06l130.36-12.72a8,8,0,0,1,1.95-5.26l-52.41-54.49Z" transform="translate(548.08 332.96)" style="fill:none"/><path d="M437.5,48.78a8,8,0,0,1,2.66,3.73,9,9,0,0,1,.35,1.5l94.08-1.68a8,8,0,0,1,3.69-6.58l-45.9-86Z" transform="translate(548.08 332.96)" style="fill:none"/><path d="M199.21,204.49a7.8,7.8,0,0,1,.53,6l180.31,75a8,8,0,0,1,1.36-1.87L274.27,156.72Z" transform="translate(548.08 332.96)" style="fill:none"/><path d="M105.06,48.67a7.92,7.92,0,0,1-2.47,2.84l56.07,97.18L218,101.19a7.6,7.6,0,0,1-.9-1.83,7.9,7.9,0,0,1-.07-4.9Z" transform="translate(548.08 332.96)" style="fill:none"/><path d="M213.54,517.07l106.91,37.8,12.43-8.75a8.42,8.42,0,0,1-.63-1.4,7.89,7.89,0,0,1-.37-3.45Z" transform="translate(548.08 332.96)" style="fill:none"/><path d="M24.94-21.23a8,8,0,0,1,1.45,2.57,8.28,8.28,0,0,1,.39,1.88L97-16.42l-.27-71.19a8,8,0,0,1-4.37-1.79Z" transform="translate(548.08 332.96)" style="fill:none"/><path d="M229,786.62a8.1,8.1,0,0,1-.27-1L94.31,798.86a7.64,7.64,0,0,1-.18,1.73L222.3,840.94,234,791.62A8,8,0,0,1,229,786.62Z" transform="translate(548.08 332.96)" style="fill:none"/><path d="M7.41,367,56.32,262.51l-98-41.56a7.9,7.9,0,0,1-3.78,3.52L2.85,366.71A7.92,7.92,0,0,1,7.41,367Z" transform="translate(548.08 332.96)" style="fill:none"/><path d="M95.4,37.4A8.22,8.22,0,0,1,97.21,37l-.2-52-70.24-.36a7.91,7.91,0,0,1-1.2,3.5L92.12,39.52A7.9,7.9,0,0,1,95.4,37.4Z" transform="translate(548.08 332.96)" style="fill:none"/><path d="M274.4,1284.5a7.85,7.85,0,0,1,1.37-1.62l-115-152.54-26.91,73.8a8,8,0,0,1,4,10.21Z" transform="translate(548.08 332.96)" style="fill:none"/><path d="M98.68,37a8,8,0,0,1,5.55,3l78.6-51.39a8.08,8.08,0,0,1-.68-1.49,8.7,8.7,0,0,1-.37-1.63l-83.3-.43Z" transform="translate(548.08 332.96)" style="fill:none"/><path d="M274.91,1279.29,175.5,1104c-.23.11-.47.2-.71.29a8.08,8.08,0,0,1-4.61.16l-8.82,24.19Z" transform="translate(548.08 332.96)" style="fill:none"/><path d="M223.37,842.82,193.24,969.58a8,8,0,0,1,3.57,2.43l131.34-91a7.84,7.84,0,0,1-1.21-5.62Z" transform="translate(548.08 332.96)" style="fill:none"/><path d="M179.76,1099.39a8,8,0,0,1-3,3.92L277.86,1281.5a7.69,7.69,0,0,1,.72-.28,7.9,7.9,0,0,1,4.13-.27l43.15-145.15Z" transform="translate(548.08 332.96)" style="fill:none"/><path d="M177.55,1090.79a8,8,0,0,1,2.24,3.39,8.16,8.16,0,0,1,.26,1l155.63-17.07a7.93,7.93,0,0,1,1-4l-98.64-64.91Z" transform="translate(548.08 332.96)" style="fill:none"/><path d="M329.07,882.21l-131.42,91a8,8,0,0,1,.09,7.69l40,26.29,92.14-124.28A8.63,8.63,0,0,1,329.07,882.21Z" transform="translate(548.08 332.96)" style="fill:none"/><path d="M189.24,248.23l-6.55,58.55a8,8,0,0,1,5.26,3.75l73.61-34.94a8,8,0,0,1,0-4.34Z" transform="translate(548.08 332.96)" style="fill:none"/><path d="M-150.91,140.94a7.77,7.77,0,0,1-1.21.53,7.37,7.37,0,0,1-1.29.32l11.66,169.88,64.6-59.4Z" transform="translate(548.08 332.96)" style="fill:none"/><path d="M425,57.65c0-.13-.08-.27-.11-.4L232.59,95.94a8,8,0,0,1-2.25,6.46l44.22,52.38,150.9-96.06A8.61,8.61,0,0,1,425,57.65Z" transform="translate(548.08 332.96)" style="fill:none"/><path d="M-162.27,136.47a8,8,0,0,1,2.75-9L-265.69,88.27a7.94,7.94,0,0,1-2.63,3.1l125,218.72-11.54-168.2A8,8,0,0,1-162.27,136.47Z" transform="translate(548.08 332.96)" style="fill:none"/><path d="M140.79,1090a8.12,8.12,0,0,1,.42,2.69l23.17,2.47a8,8,0,0,1,5.26-6,7.91,7.91,0,0,1,3.06-.4l16-103.87a7.32,7.32,0,0,1-.94-.29l-50.37,101.17A8,8,0,0,1,140.79,1090Z" transform="translate(548.08 332.96)" style="fill:none"/><path d="M186,970.65,89.7,806.15a5.73,5.73,0,0,1-.81.33,8,8,0,0,1-10-4.71L-48.38,837.42a7.92,7.92,0,0,1-.56,4.68l233,130.52A7.81,7.81,0,0,1,186,970.65Z" transform="translate(548.08 332.96)" style="fill:none"/><path d="M64.77,711.83,18.86,519.43-53.72,831.28a7.84,7.84,0,0,1,2.46,1.33Z" transform="translate(548.08 332.96)" style="fill:none"/><path d="M-.3,368.26l-76-114.75L-141,313-2.36,370.75A8.08,8.08,0,0,1-.3,368.26Z" transform="translate(548.08 332.96)" style="fill:none"/><path d="M409.89-193.71a6.75,6.75,0,0,1-1.05.27l24,240.53a8.08,8.08,0,0,1,3.43.89l55.31-89.77L410.41-193.91Z" transform="translate(548.08 332.96)" style="fill:none"/><path d="M597.23-221.58a8,8,0,0,1-.24-.93l-181.68,21a8,8,0,0,1-3.6,6.86L492.47-43.25,600-217.76A8,8,0,0,1,597.23-221.58Z" transform="translate(548.08 332.96)" style="fill:none"/><path d="M310.5-67.42a8.09,8.09,0,0,1-1.61,3.81l45,42.6L393.4-56.76A8.17,8.17,0,0,1,392.23-59a7.85,7.85,0,0,1-.42-2.42Z" transform="translate(548.08 332.96)" style="fill:none"/><path d="M-107.85-67.4,5.8-5.81l6.51-5.63a7.72,7.72,0,0,1-1.07-2.08,8,8,0,0,1-.07-4.91Z" transform="translate(548.08 332.96)" style="fill:none"/><path d="M195.88-10.34,281.55-58,197.34-17.88A8,8,0,0,1,195.88-10.34Z" transform="translate(548.08 332.96)" style="fill:none"/><path d="M-149.15,128.13,4.61-4.78-113.77-68.93a7.9,7.9,0,0,1-4.07,3.14,7.93,7.93,0,0,1-3.14.4l-31.68,191.55A7.92,7.92,0,0,1-149.15,128.13Z" transform="translate(548.08 332.96)" style="fill:none"/><path d="M426.25,60,275.53,155.92l107,126.76a7.89,7.89,0,0,1,5.37-1.4L430.57,62.82A8,8,0,0,1,426.25,60Z" transform="translate(548.08 332.96)" style="fill:none"/><path d="M493.28-41.74,539.6,45.08l.41-.17a8.07,8.07,0,0,1,4-.29l58.31-261.17a7.31,7.31,0,0,1-1.09-.44Z" transform="translate(548.08 332.96)" style="fill:none"/><path d="M199.17,211.88c-.12.23-.25.45-.39.67l65.13,55a8.13,8.13,0,0,1,2.78-1.63,8,8,0,0,1,10.57,7.9l102.06,13.64c.05-.2.1-.39.16-.59Z" transform="translate(548.08 332.96)" style="fill:none"/><path d="M267.49,281.28l-62,225.26a8,8,0,0,1,5.29,5.09,8.17,8.17,0,0,1,.37,3.44l121,24.75a8,8,0,0,1,4.93-5.19l-66-253.36A8,8,0,0,1,267.49,281.28Z" transform="translate(548.08 332.96)" style="fill:none"/><path d="M-147.5,130.39l.5.19L90.22,46.93a8,8,0,0,1,.41-5.1L6-4-148.18,129.25A7.63,7.63,0,0,1-147.5,130.39Z" transform="translate(548.08 332.96)" style="fill:none"/><path d="M469.16,1330.41l-72.93-15.85-29.53,70.38a8,8,0,0,1,2.43,2.48l101-52.62a8.3,8.3,0,0,1-.55-1.25A7.94,7.94,0,0,1,469.16,1330.41Z" transform="translate(548.08 332.96)" style="fill:none"/><path d="M243.34,1372l24-53.85-131-101.28a9.38,9.38,0,0,1-.87.79L237,1372.47a7.82,7.82,0,0,1,1.18-.52A8,8,0,0,1,243.34,1372Z" transform="translate(548.08 332.96)" style="fill:none"/><path d="M342.4,549.72a8,8,0,0,1-8.67-2.39l-11.57,8.14,119.3,42.18-95-51.09A7.91,7.91,0,0,1,342.4,549.72Z" transform="translate(548.08 332.96)" style="fill:none"/><path d="M268.5,1319l-23.81,53.52a8,8,0,0,1,3.67,4.4,8.13,8.13,0,0,1,.42,2.6l105.78,10.19a8,8,0,0,1,1.47-3Z" transform="translate(548.08 332.96)" style="fill:none"/><path d="M375.21,772.36a8.38,8.38,0,0,1-.27-1.07L244.58,784a8,8,0,0,1-1.71,5l86.5,81.85a8,8,0,0,1,8.05-1.73l41.44-92.37A8,8,0,0,1,375.21,772.36Z" transform="translate(548.08 332.96)" style="fill:none"/><path d="M346.25,1085.56a8,8,0,0,1-4,.3l-14.53,48.88,120.68,30.07a8.18,8.18,0,0,1,1-2.23l-99.8-79.17A7.87,7.87,0,0,1,346.25,1085.56Z" transform="translate(548.08 332.96)" style="fill:none"/><path d="M444.68,607.27,325.45,709.11l52.35,54.42a8,8,0,0,1,7.27-1.41l61.54-153.46A8,8,0,0,1,444.68,607.27Z" transform="translate(548.08 332.96)" style="fill:none"/><path d="M141.05,1094.17a8,8,0,0,1-2.45,4.33l21.7,28.78,8.49-23.3a8,8,0,0,1-4.57-7.34Z" transform="translate(548.08 332.96)" style="fill:none"/><path d="M132.45,1203.63l27.24-74.7-22.27-29.54a8.4,8.4,0,0,1-1.63.77,8,8,0,0,1-2,.4l-2.43,102.87A8,8,0,0,1,132.45,1203.63Z" transform="translate(548.08 332.96)" style="fill:none"/><path d="M176.37,1089.91l60.44-81.52-39.88-26.25a7.9,7.9,0,0,1-6.73,3l-16,103.86A8.4,8.4,0,0,1,176.37,1089.91Z" transform="translate(548.08 332.96)" style="fill:none"/><path d="M188.11,969.57a8,8,0,0,1,3.7-.34L222,842.38,93.69,802A8,8,0,0,1,91,805.41L187.3,969.9Q187.69,969.72,188.11,969.57Z" transform="translate(548.08 332.96)" style="fill:none"/><path d="M357.45,1385.3l-71.9-89.83a7.79,7.79,0,0,1-1.83.9,8,8,0,0,1-5.13,0l-9.47,21.28,87.93,68Z" transform="translate(548.08 332.96)" style="fill:none"/><path d="M277.24,1295.76a8,8,0,0,1-3.51-10l-136.51-70.12,130.69,101Z" transform="translate(548.08 332.96)" style="fill:none"/><path d="M-47.6,225.09a8,8,0,0,1-8.68-5.35,8,8,0,0,1,.85-6.91l-93.51-73.37a7.75,7.75,0,0,1-.74.66L-76,251.25Z" transform="translate(548.08 332.96)" style="fill:none"/><path d="M288.77,1291.21a8,8,0,0,1-2.07,3.34l72,90a7.06,7.06,0,0,1,1.05-.45,8,8,0,0,1,5.63.19l29.37-70Z" transform="translate(548.08 332.96)" style="fill:none"/><path d="M1.45,367.19-46.47,226.05-75.23,252.5l76.16,115Z" transform="translate(548.08 332.96)" style="fill:none"/><path d="M66,710.56l59-61.43a7.79,7.79,0,0,1-1.53-2.66,8,8,0,0,1,2-8.27l-104.58-123a7.9,7.9,0,0,1-1.33.76Z" transform="translate(548.08 332.96)" style="fill:none"/><path d="M87.82,791.05,128.26,651.4a8.25,8.25,0,0,1-2.18-1.24L66.4,712.27,85.19,791A8,8,0,0,1,87.82,791.05Z" transform="translate(548.08 332.96)" style="fill:none"/><path d="M20.86,502.09l61.17-72L10.78,379.69a7.93,7.93,0,0,1-3.5,2.38,8.07,8.07,0,0,1-1.15.29l10.2,118.28A8,8,0,0,1,20.86,502.09Z" transform="translate(548.08 332.96)" style="fill:none"/><path d="M241.78,612a8.42,8.42,0,0,1,.63,1.4,7.81,7.81,0,0,1,.32,1.31l199.53-13.37a8.58,8.58,0,0,1,.24-1.76L320.67,556.51Z" transform="translate(548.08 332.96)" style="fill:none"/><path d="M205.79,521.78l-.07,0,27.6,86.33a8,8,0,0,1,7.61,2.66l78-54.88L210.48,517.55A8,8,0,0,1,205.79,521.78Z" transform="translate(548.08 332.96)" style="fill:none"/><path d="M227.22,104.37a8,8,0,0,1-4.1.27l-28.07,96.07a7.87,7.87,0,0,1,3.37,2.54l74.89-47.67-44.1-52.23A8,8,0,0,1,227.22,104.37Z" transform="translate(548.08 332.96)" style="fill:none"/><path d="M442.68,604.11a7.48,7.48,0,0,1-.32-1.3L242.83,616.18a8.06,8.06,0,0,1-1.94,5l83.54,86.85,119.29-101.9A7.84,7.84,0,0,1,442.68,604.11Z" transform="translate(548.08 332.96)" style="fill:none"/><path d="M194.68,215.72a8.06,8.06,0,0,1-1.84.39l-3.43,30.62,72.72,23.14a8.05,8.05,0,0,1,.78-1.24L197.85,213.7A7.82,7.82,0,0,1,194.68,215.72Z" transform="translate(548.08 332.96)" style="fill:none"/><path d="M262.07,277l-73.49,34.89c0,.05,0,.11.07.17a8,8,0,0,1-5,10.15,8.32,8.32,0,0,1-1,.26l19.78,183.8a8,8,0,0,1,1.62,0l62-225.43A8,8,0,0,1,262.07,277Z" transform="translate(548.08 332.96)" style="fill:none"/><path d="M237.41,623.55c-.19.07-.38.12-.57.17l.45,152.37a8,8,0,0,1,4.86,2.23L323.3,709l-83.48-86.78A7.82,7.82,0,0,1,237.41,623.55Z" transform="translate(548.08 332.96)" style="fill:none"/><path d="M331.08,883.73,238.93,1008l98.59,64.88a7.91,7.91,0,0,1,3.58-2.48,8.9,8.9,0,0,1,1.65-.37L334.6,884.67A8,8,0,0,1,331.08,883.73Z" transform="translate(548.08 332.96)" style="fill:none"/><path d="M336.1,1080.56a7.17,7.17,0,0,1-.27-1l-155.61,17.07a8.54,8.54,0,0,1-.1,1.34l146.16,36.42,14.55-48.92A8,8,0,0,1,336.1,1080.56Z" transform="translate(548.08 332.96)" style="fill:none"/><path d="M327.3,1136.16l-43.17,145.21a8.14,8.14,0,0,1,3.16,2.3l162.56-111.91a7.88,7.88,0,0,1-1.69-5.49Z" transform="translate(548.08 332.96)" style="fill:none"/><path d="M239.15,791.63a7.94,7.94,0,0,1-3.69.34l-11.75,49.41L327.3,874a8.41,8.41,0,0,1,1.09-2l-86.53-81.88A7.94,7.94,0,0,1,239.15,791.63Z" transform="translate(548.08 332.96)" style="fill:none"/><path d="M453.43,1174.35a8.2,8.2,0,0,1-2.56-1.51L288.13,1284.89a8.43,8.43,0,0,1,.6,1.33,8,8,0,0,1,.36,3.54l106.25,23.09Z" transform="translate(548.08 332.96)" style="fill:none"/><path d="M612.39-226.73a8,8,0,0,0-10.15-5,8,8,0,0,0-5.43,7.76l-181.67,21c-.07-.31-.15-.62-.25-.92a8,8,0,0,0-10.15-5,8,8,0,0,0-5,10.15,8,8,0,0,0,6.41,5.34L399.49-69.55a8.16,8.16,0,0,0-2.26.41,8,8,0,0,0-5.32,6.26l-81.34-6a7.76,7.76,0,0,0-.41-2.2,8,8,0,0,0-10.15-5A8,8,0,0,0,295-66L196.76-19.24A8,8,0,0,0,187.15-23a8.06,8.06,0,0,0-3,1.8L103.93-90.91A8,8,0,0,0,105-98.15a8,8,0,0,0-10.15-5,8,8,0,0,0-5,10.15,8,8,0,0,0,1.45,2.57L23.89-22.27a8,8,0,0,0-7.65-1.39,8,8,0,0,0-4.51,3.86L-112.77-71a8,8,0,0,0-.06-4.92,8,8,0,0,0-10.15-5,8,8,0,0,0-5,10.15,8,8,0,0,0,5.55,5.17l-31.68,191.54a8.13,8.13,0,0,0-3.14.41,6.44,6.44,0,0,0-.61.24L-265.18,86.89a7.92,7.92,0,0,0-.15-4.64,8,8,0,0,0-10.15-5,8,8,0,0,0-5,10.15,8,8,0,0,0,10.14,5c.26-.09.5-.19.74-.3l126.29,221-.42.39.84.34,1.47,2.58-.14-2L-2.92,372.11a7.91,7.91,0,0,0,0,4.95,8,8,0,0,0,7.53,5.43L14.85,500.77A8,8,0,1,0,18,516.44l-73.19,314.5a7.94,7.94,0,0,0-3.66.34,8,8,0,0,0-5,10.15,8,8,0,0,0,10.15,5,8,8,0,0,0,4-3.05l233,130.51A8,8,0,0,0,186.47,984L136.1,1085.13a8,8,0,1,0-3.81,15.4l-2.43,102.87A8,8,0,1,0,133,1219a7.7,7.7,0,0,0,1.17-.52l101.63,154.85a8,8,0,1,0,12.85,7.75l105.7,10.19a8.16,8.16,0,0,0,.41,3,8,8,0,0,0,15.16-5.15c0-.11-.09-.21-.13-.31L471,1336a8,8,0,1,0,6.64-13l-19-148.56.09,0a8,8,0,1,0-8.46-13l-99.8-79.17a8,8,0,0,0-6.22-12.24l-8.15-185.43a8,8,0,0,0,6.33-10.47,8,8,0,0,0-3.64-4.38l41.44-92.37a8,8,0,0,0,6.23-14.68L448,609.2a8,8,0,1,0-4.38-12.08l-96.42-51.86a8,8,0,0,0-8.65-11l-66-253.37-.71.19a8,8,0,0,0,5.22-5.79l102.06,13.64a8,8,0,1,0,15.57-2.25,8,8,0,0,0-5.33-5.1L432,63.06a8,8,0,0,0,8.55-7.57L534.7,53.8a7,7,0,0,0,.31,1.26,8,8,0,1,0,10.45-10L603.8-216.23a7.73,7.73,0,0,0,3.58-.35A8,8,0,0,0,612.39-226.73ZM534.59,52.33,440.51,54a9,9,0,0,0-.35-1.5,8,8,0,0,0-2.66-3.73l54.88-89.07,45.9,86A8,8,0,0,0,534.59,52.33ZM380.05,285.5l-180.31-75a7.8,7.8,0,0,0-.53-6l75.06-47.77L381.41,283.63A8,8,0,0,0,380.05,285.5Zm-47.8,259.22a8.42,8.42,0,0,0,.63,1.4l-12.43,8.75-106.91-37.8,118.34,24.2A7.89,7.89,0,0,0,332.25,544.72Zm42.54,225.1L244.43,782.54a8.24,8.24,0,0,0-.27-1.06,7.87,7.87,0,0,0-1-2l81.22-69.37,52.41,54.49A8,8,0,0,0,374.79,769.82ZM476.11,1323a8.58,8.58,0,0,0-1.54.36,8,8,0,0,0-5.16,5.55l-72.6-15.78,58.07-138.44a8,8,0,0,0,2.29,0l11.35,88.83ZM-48.78,836a7.93,7.93,0,0,0-1.41-2.37L65.18,713.54l18.57,77.79h0a8,8,0,0,0-5.29,9ZM190.81-7.53,115.7,34.27l68-44.46A8,8,0,0,0,190.81-7.53ZM305.15-60.95a8,8,0,0,0,2.73-1.59L352.75-20,230.06,90.9a7.88,7.88,0,0,0-1.37-1l70.92-151A7.92,7.92,0,0,0,305.15-60.95Zm97.54,6.84a8,8,0,0,0,4.69-10A8,8,0,0,0,401-69.47l6.57-122.16L431.31,46.69Zm-8.3-1.56a8,8,0,0,0,6.88,2L430,47.5a8,8,0,0,0-2.43,1.35L354.93-20ZM426.51,49.88a8,8,0,0,0-1.89,5.91L232.3,94.5c0-.1-.05-.19-.08-.28A8.11,8.11,0,0,0,231.05,92L353.83-19ZM261.56,275.59,188,310.53a8,8,0,0,0-5.26-3.75l6.55-58.55,72.35,23A8,8,0,0,0,261.56,275.59ZM138,1208.8a8,8,0,0,0-4.15-4.66l26.91-73.8,115,152.54a7.85,7.85,0,0,0-1.37,1.62l-136.57-70.15A8,8,0,0,0,138,1208.8Zm36.8-104.47c.24-.09.48-.18.71-.29l99.41,175.25L161.36,1128.68l8.82-24.19A8.08,8.08,0,0,0,174.79,1104.33Zm103.79,176.89a7.69,7.69,0,0,0-.72.28L176.79,1103.31a8,8,0,0,0,3-3.92l146.1,36.41L282.71,1281A7.9,7.9,0,0,0,278.58,1281.22Zm57.1-203.14-155.63,17.07a8.16,8.16,0,0,0-.26-1,8,8,0,0,0-2.24-3.39l60.5-81.59,98.64,64.91A7.93,7.93,0,0,0,335.68,1078.08Zm-98-70.88-40-26.29a8,8,0,0,0-.09-7.69l131.42-91a8.63,8.63,0,0,0,.77.71Zm89.56-128a8,8,0,0,0,.89,1.8L196.81,972a8,8,0,0,0-3.57-2.43l30.13-126.76,103.57,32.61A8,8,0,0,0,327.26,879.25Zm-105-38.31L94.13,800.59a7.64,7.64,0,0,0,.18-1.73l134.42-13.29a8.1,8.1,0,0,0,.27,1,8,8,0,0,0,5,5ZM-45.45,224.47A7.9,7.9,0,0,0-41.67,221l98,41.56L7.41,367a7.92,7.92,0,0,0-4.56-.26ZM96.73-87.61,97-16.42l-70.22-.36a8.28,8.28,0,0,0-.39-1.88,8,8,0,0,0-1.45-2.57L92.36-89.4A8,8,0,0,0,96.73-87.61Zm-70,72.3L97-14.95l.2,52a8.22,8.22,0,0,0-1.81.38,7.9,7.9,0,0,0-3.28,2.12L25.57-11.81A7.91,7.91,0,0,0,26.77-15.31Zm155,.8a8.7,8.7,0,0,0,.37,1.63,8.08,8.08,0,0,0,.68,1.49L104.23,40a8,8,0,0,0-5.55-3l-.2-51.95ZM217.07,99.36a7.6,7.6,0,0,0,.9,1.83l-59.31,47.5L102.59,51.51a7.92,7.92,0,0,0,2.47-2.84L217,94.46A7.9,7.9,0,0,0,217.07,99.36Zm-33,108.72L87.7,210.71c0-.2-.1-.4-.17-.6a7.6,7.6,0,0,0-.9-1.83l71.61-57.36,29.24,50.69A8,8,0,0,0,184.11,208.08ZM234,776.48a7.51,7.51,0,0,0-1.62.76l-60.25-80.16,61.07-73.28a7.72,7.72,0,0,0,2.15.15l.46,152.14A7.71,7.71,0,0,0,234,776.48Zm-95-133.7L159.45,638l69.7-16.38a7.85,7.85,0,0,0,2.54,1.73l-60.46,72.55-34.68-46.16A8,8,0,0,0,139,642.78ZM231.2,778.13a8,8,0,0,0-2.62,6l-106,10.48-28.45,2.81a6.75,6.75,0,0,0-.27-1A7.83,7.83,0,0,0,92,793.27l79.19-95Zm-3.94-159.58a8,8,0,0,0,.86,1.76l-89.48,21v0a8,8,0,0,0-3-4l29.29-53.11,61.93,31.15A7.85,7.85,0,0,0,227.26,618.55Zm-62.94-36.27L23.72,511.56a8.49,8.49,0,0,0,.49-1.94l156.08,4.85,15,.46a7.89,7.89,0,0,0,3.09,5.63ZM12,371.23a8,8,0,0,0-3.26-3.64l48.93-104.5,115.78,49.09a7.89,7.89,0,0,0-.17,4.29ZM-148,138.3a8.31,8.31,0,0,0,.59-1.05l129,43.23-25.68,30.15a8,8,0,0,0-7.17-1,7.91,7.91,0,0,0-3.24,2.08l-29-22.75Zm230.55,82A8.23,8.23,0,0,0,85,218.85l89.9,90.63a8.55,8.55,0,0,0-.91,1.34L58.31,261.75l19.39-41.4A8,8,0,0,0,82.53,220.26Zm-1-15.42L97.86,53a7.87,7.87,0,0,0,2.69-.42c.26-.09.52-.19.77-.3l56.17,97.38-71.78,57.5A8,8,0,0,0,81.54,204.84ZM93.38,51.51a7.86,7.86,0,0,0,3,1.3L80.07,204.68a8.16,8.16,0,0,0-2.69.42,8,8,0,0,0-4.73,4.35l-88.54-29.67ZM72.18,210.85a7.26,7.26,0,0,0-.21,1.32L3.7,214.58l-44.47,1.57a8.79,8.79,0,0,0-.36-1.56,8,8,0,0,0-1.85-3L-16.92,181Zm-112.9,6.78L72,213.69a8.59,8.59,0,0,0,.36,1.56,8,8,0,0,0,3.94,4.55L57,261.17l-98-41.58A8.09,8.09,0,0,0-40.72,217.63Zm217.2,103.53a8,8,0,0,0,4.71,1.45l7.61,70.69L201,506.53l-.34.1a8,8,0,0,0-3.85,2.8L84.2,429.8Zm2-14.13a8,8,0,0,0-2.49,1.39L86.35,217.48a8.53,8.53,0,0,0,1-1.68l100.49,32-6.59,58.85A8,8,0,0,0,178.5,307ZM90.71,48.32a8,8,0,0,0,1.54,2.24L-17.4,179.27l-129.54-43.41a7.91,7.91,0,0,0,.05-3.75ZM12.49,372.63l161.28-54.76a7.76,7.76,0,0,0,1.59,2.33L83,429,11.63,378.48A7.94,7.94,0,0,0,12.49,372.63Zm70.75,58.3L196,510.69a8,8,0,0,0-.77,2.76l-171-5.3a7.65,7.65,0,0,0-.4-2.09,8,8,0,0,0-1.86-3ZM23.06,512.88l140.55,70.69-29.25,53a8,8,0,0,0-5.87-.29,7.59,7.59,0,0,0-1.89.94L22,514.22A7.58,7.58,0,0,0,23.06,512.88Zm110.57,138.6a8.21,8.21,0,0,0,1.76-.86L170.26,697,90.84,792.32a8.48,8.48,0,0,0-1.6-.86l40.45-139.67A8,8,0,0,0,133.63,651.48Zm93.49-37.62-61.48-30.92,34-61.6a8,8,0,0,0,4.66.79l27.63,86.41A8,8,0,0,0,227.12,613.86ZM188,246.27,87.77,214.39a8.58,8.58,0,0,0,.17-2.21l96.3-2.62a8.2,8.2,0,0,0,.29,1.16,8,8,0,0,0,6.82,5.39Zm1.56-45.7c-.26.09-.52.19-.77.3L159.41,150l59.48-47.65a8.06,8.06,0,0,0,2.81,1.89L193.63,200.3A7.89,7.89,0,0,0,189.53,200.57ZM298.29-61.78,227.36,89.27a8,8,0,0,0-9.81,3.82L105.62,47.31a7.93,7.93,0,0,0-.07-4.91,5.18,5.18,0,0,0-.26-.65l190.53-106A8,8,0,0,0,298.29-61.78ZM181.74-16l-83.26-.43-.27-71.2A7.23,7.23,0,0,0,100-88,7.85,7.85,0,0,0,103-89.8l80.27,69.69A8,8,0,0,0,181.74-16ZM21.39-8.51a7.92,7.92,0,0,0,3.28-2.13L90.25,40,7.19-5.06l6.08-5.26A8,8,0,0,0,21.39-8.51ZM90.63,41.83a8,8,0,0,0-.41,5.1L-147,130.58l-.5-.19a7.63,7.63,0,0,0-.68-1.14L6-4Zm-239.57,97.63,93.51,73.37a8,8,0,0,0-.85,6.91,8,8,0,0,0,8.68,5.35L-76,251.25l-73.63-111.13A7.75,7.75,0,0,0-148.94,139.46Zm102.47,86.59L1.45,367.19l-.52.26L-75.23,252.5Zm53.75,156a7.93,7.93,0,0,0,3.5-2.38L82,430.08l-61.17,72a8,8,0,0,0-4.53-1.45L6.13,382.36A8.07,8.07,0,0,0,7.28,382.07ZM125.45,638.2a8,8,0,0,0-2,8.27,7.79,7.79,0,0,0,1.53,2.66L66,710.56,19.54,515.94a7.9,7.9,0,0,0,1.33-.76Zm.63,12a8.25,8.25,0,0,0,2.18,1.24L87.82,791.05a8,8,0,0,0-2.63-.06L66.4,712.27ZM93.69,802,222,842.38,191.81,969.23a8,8,0,0,0-3.7.34q-.42.15-.81.33L91,805.41A8,8,0,0,0,93.69,802Zm99.57,182.73a7.93,7.93,0,0,0,3.67-2.59l39.88,26.25-60.44,81.52a8.4,8.4,0,0,0-2.21-.92l16-103.86A7.93,7.93,0,0,0,193.26,984.73Zm-28.62,114.59a8,8,0,0,0,4.15,4.66l-8.49,23.3-21.7-28.78a8,8,0,0,0,2.45-4.33l23.17,2.47A8.07,8.07,0,0,0,164.64,1099.32Zm-28.85.84a8.4,8.4,0,0,0,1.63-.77l22.27,29.54-27.24,74.7a8,8,0,0,0-1.11-.2l2.43-102.87A8,8,0,0,0,135.79,1100.16Zm137.94,185.65a8,8,0,0,0,3.51,10l-9.33,21-130.69-101Zm4.86,10.56a8,8,0,0,0,5.13,0,7.79,7.79,0,0,0,1.83-.9l71.9,89.83-.4.32-87.93-68Zm81.17,87.69a7.06,7.06,0,0,0-1.05.45l-72-90a8,8,0,0,0,2.07-3.34l106,23-29.37,70A8,8,0,0,0,359.76,1384.06Zm-70.67-94.3a8,8,0,0,0-.36-3.54,8.43,8.43,0,0,0-.6-1.33l162.74-112.05a8.2,8.2,0,0,0,2.56,1.51l-58.09,138.5ZM448.56,1169.4a7.82,7.82,0,0,0,1.29,2.36L287.29,1283.67a8.14,8.14,0,0,0-3.16-2.3l43.17-145.21,120.86,30.11A7.88,7.88,0,0,0,448.56,1169.4Zm-122.28-35L180.12,1098a8.54,8.54,0,0,0,.1-1.34l155.61-17.07a7.17,7.17,0,0,0,.27,1,8,8,0,0,0,4.73,4.9Zm14.82-64a7.91,7.91,0,0,0-3.58,2.48L238.93,1008l92.15-124.28a8,8,0,0,0,3.52.94L342.75,1070A8.9,8.9,0,0,0,341.1,1070.41ZM327.3,874,223.71,841.38,235.46,792a8,8,0,0,0,6.4-1.91l86.53,81.88A8.41,8.41,0,0,0,327.3,874Zm-85.15-95.67a8,8,0,0,0-4.86-2.23l-.45-152.37c.19-.05.38-.1.57-.17a7.82,7.82,0,0,0,2.41-1.32L323.3,709ZM240.89,621.2a8.06,8.06,0,0,0,1.94-5l199.53-13.37a7.48,7.48,0,0,0,.32,1.3,7.84,7.84,0,0,0,1,2L324.43,708.05Zm201.37-19.86L242.73,614.71a7.81,7.81,0,0,0-.32-1.31,8.42,8.42,0,0,0-.63-1.4l78.89-55.49L442.5,599.58A8.58,8.58,0,0,0,442.26,601.34Zm-201.33,9.45a8,8,0,0,0-7.61-2.66l-27.6-86.33.07,0a8,8,0,0,0,4.69-4.23L319,555.91ZM202.44,506.25l-19.78-183.8a8.32,8.32,0,0,0,1-.26,8,8,0,0,0,5-10.15c0-.06-.05-.12-.07-.17L262.07,277a8,8,0,0,0,4,3.84l-62,225.43A8,8,0,0,0,202.44,506.25Zm59.69-236.38-72.72-23.14,3.43-30.62a8.06,8.06,0,0,0,1.84-.39,7.82,7.82,0,0,0,3.17-2l65.06,54.93A8.05,8.05,0,0,0,262.13,269.87Zm-63.71-66.62a7.87,7.87,0,0,0-3.37-2.54l28.07-96.07a7.85,7.85,0,0,0,6.09-1.29l44.1,52.23ZM230.34,102.4a8,8,0,0,0,2.25-6.46l192.3-38.69c0,.13.07.27.11.4a8.61,8.61,0,0,0,.46,1.07l-150.9,96.06ZM436.26,48a8.08,8.08,0,0,0-3.43-.89l-24-240.53a6.75,6.75,0,0,0,1.05-.27l.52-.2L491.57-41.79ZM411.71-194.61a8,8,0,0,0,3.6-6.86l181.68-21a8,8,0,0,0,.24.93,8,8,0,0,0,2.77,3.82L492.47-43.25ZM392.23-59a8.17,8.17,0,0,0,1.17,2.23L353.85-21l-45-42.6a8.09,8.09,0,0,0,1.61-3.81l81.31,6A7.85,7.85,0,0,0,392.23-59ZM195.88-10.34a8,8,0,0,0,1.46-7.54L281.55-58ZM11.24-13.52a7.72,7.72,0,0,0,1.07,2.08L5.8-5.81-107.85-67.4l119,49A8,8,0,0,0,11.24-13.52ZM-121-65.39a7.93,7.93,0,0,0,3.14-.4,7.9,7.9,0,0,0,4.07-3.14L4.61-4.78-149.15,128.13a7.92,7.92,0,0,0-3.51-2ZM-268.32,91.37a7.94,7.94,0,0,0,2.63-3.1l106.17,39.25a8,8,0,0,0-2.75,9,8,8,0,0,0,7.39,5.42l11.54,168.2Zm126.57,220.3-11.66-169.88a7.37,7.37,0,0,0,1.29-.32,7.77,7.77,0,0,0,1.21-.53l73.76,111.33ZM-141,313l64.7-59.51,76,114.75a8.08,8.08,0,0,0-2.06,2.49ZM18.86,519.43l45.91,192.4-116,120.78a7.84,7.84,0,0,0-2.46-1.33ZM-48.94,842.1a7.92,7.92,0,0,0,.56-4.68L78.85,801.77a8,8,0,0,0,10,4.71,5.73,5.73,0,0,0,.81-.33L186,970.65a7.81,7.81,0,0,0-1.92,2ZM187.8,984.61a7.32,7.32,0,0,0,.94.29l-16,103.87a7.91,7.91,0,0,0-3.06.4,8,8,0,0,0-5.26,6l-23.17-2.47a8.12,8.12,0,0,0-.42-2.69,8,8,0,0,0-3.36-4.23Zm-52.4,233a9.38,9.38,0,0,0,.87-.79l131,101.28-24,53.85a8,8,0,0,0-5.13,0,7.82,7.82,0,0,0-1.18.52Zm113.38,161.94a8.13,8.13,0,0,0-.42-2.6,8,8,0,0,0-3.67-4.4L268.5,1319,356,1386.71a8,8,0,0,0-1.47,3Zm120.35,7.86a8,8,0,0,0-2.43-2.48l29.53-70.38,72.93,15.85a7.94,7.94,0,0,0,.41,3.14,8.3,8.3,0,0,0,.55,1.25Zm80.23-224.84a8.18,8.18,0,0,0-1,2.23l-120.68-30.07,14.53-48.88a8,8,0,0,0,4-.3,7.87,7.87,0,0,0,3.31-2.15ZM337.42,869.11a8,8,0,0,0-8.05,1.73L242.87,789a8,8,0,0,0,1.71-5l130.36-12.72a8.38,8.38,0,0,0,.27,1.07,8,8,0,0,0,3.65,4.38Zm47.65-107a8,8,0,0,0-7.27,1.41l-52.35-54.42L444.68,607.27a8,8,0,0,0,1.93,1.39Zm56.39-164.47-119.3-42.18,11.57-8.14a8,8,0,0,0,8.67,2.39,7.91,7.91,0,0,0,4.08-3.16Zm-104.36-63a8,8,0,0,0-4.93,5.19l-121-24.75a8.17,8.17,0,0,0-.37-3.44,8,8,0,0,0-5.29-5.09l62-225.26a8,8,0,0,0,3.64,0ZM277.26,273.81a8,8,0,0,0-13.35-6.27l-65.13-55c.14-.22.27-.44.39-.67l180.31,75c-.06.2-.11.39-.16.59Zm110.65,7.47a7.89,7.89,0,0,0-5.37,1.4l-107-126.76L426.25,60a8,8,0,0,0,4.32,2.85ZM544,44.62a8.07,8.07,0,0,0-4,.29l-.41.17L493.28-41.74,601.26-217a7.31,7.31,0,0,0,1.09.44Z" transform="translate(548.08 332.96)"/></svg>